<svg xmlns="http://www.w3.org/2000/svg" viewBox="0 0 1200 1500" width="1200" height="1500" role="img" aria-labelledby="title desc">
<title id="title">Editorial werkruimte</title>
<desc id="desc">Abstracte illustratie van een zelfstandige in een rustige lichte werkruimte.</desc>
<rect width="1200" height="1500" fill="#CBF3F0"/>
<rect x="0" y="0" width="1200" height="260" fill="#FFFFFF"/>
<circle cx="985" cy="168" r="92" fill="#FFBF69"/>
<rect x="95" y="350" width="1010" height="870" rx="58" fill="#FFFFFF"/>
<rect x="164" y="1030" width="870" height="66" rx="33" fill="#111111"/>
<rect x="230" y="1094" width="44" height="232" rx="22" fill="#111111"/>
<rect x="914" y="1094" width="44" height="232" rx="22" fill="#111111"/>
<rect x="380" y="770" width="450" height="258" rx="32" fill="#111111"/>
<rect x="408" y="798" width="394" height="202" rx="18" fill="#FFFFFF"/>
<rect x="454" y="844" width="242" height="22" rx="11" fill="#CBF3F0"/>
<rect x="454" y="889" width="164" height="18" rx="9" fill="#FF9F1C"/>
<rect x="454" y="932" width="274" height="18" rx="9" fill="#2EC4B6"/>
<circle cx="272" cy="642" r="106" fill="#FFBF69"/>
<path d="M157 824c21-127 82-188 183-188 101 0 162 61 183 188v172H157V824Z" fill="#2EC4B6"/>
<path d="M218 622c18-93 83-140 150-124 58 14 94 66 92 132-44-43-102-64-173-55-27 4-50 19-69 47Z" fill="#111111"/>
<rect x="722" y="490" width="210" height="32" rx="16" fill="#111111"/>
<rect x="722" y="548" width="282" height="20" rx="10" fill="#2EC4B6"/>
<rect x="722" y="591" width="226" height="20" rx="10" fill="#FF9F1C"/>
<rect x="722" y="634" width="174" height="20" rx="10" fill="#CBF3F0"/>
<circle cx="1016" cy="1217" r="112" fill="#FF9F1C"/>
<rect x="130" y="1185" width="160" height="26" rx="13" fill="#2EC4B6"/>
<rect x="130" y="1230" width="236" height="20" rx="10" fill="#111111"/>
</svg>
