<svg xmlns="http://www.w3.org/2000/svg" viewBox="0 0 64 64" role="img" aria-label="Boekuna"><path d="M18,22 H30 A12,12 0 0 1 42,34 V46 A12,12 0 0 1 30,58 H18 A12,12 0 0 1 6,46 V34 A12,12 0 0 1 18,22 Z M28.5,22 H35.5 A6.5,6.5 0 0 1 42,28.5 V35.5 A6.5,6.5 0 0 1 35.5,42 H28.5 A6.5,6.5 0 0 1 22,35.5 V28.5 A6.5,6.5 0 0 1 28.5,22 Z" fill="#FFFFFF" fill-rule="evenodd"/><path d="M34,6 H46 A12,12 0 0 1 58,18 V30 A12,12 0 0 1 46,42 H34 A12,12 0 0 1 22,30 V18 A12,12 0 0 1 34,6 Z M28.5,22 H35.5 A6.5,6.5 0 0 1 42,28.5 V35.5 A6.5,6.5 0 0 1 35.5,42 H28.5 A6.5,6.5 0 0 1 22,35.5 V28.5 A6.5,6.5 0 0 1 28.5,22 Z" fill="#9ED2C8" fill-rule="evenodd"/></svg>